<svg width="38" height="38" viewBox="0 0 38 38" fill="none" xmlns="http://www.w3.org/2000/svg">
<path d="M31.8833 26.7716C32.7081 25.7506 33.1607 24.4792 33.1666 23.1666C33.1666 21.6195 32.552 20.1358 31.4581 19.0418C30.3641 17.9479 28.8804 17.3333 27.3333 17.3333C25.7862 17.3333 24.3025 17.9479 23.2085 19.0418C22.1145 20.1358 21.5 21.6195 21.5 23.1666C21.5059 24.4792 21.9585 25.7506 22.7833 26.7716C21.2545 27.5564 19.952 28.7194 19 30.15C18.0479 28.7194 16.7454 27.5564 15.2166 26.7716C16.0414 25.7506 16.494 24.4792 16.5 23.1666C16.5 21.6195 15.8854 20.1358 14.7914 19.0418C13.6975 17.9479 12.2137 17.3333 10.6666 17.3333C9.11953 17.3333 7.6358 17.9479 6.54184 19.0418C5.44787 20.1358 4.83329 21.6195 4.83329 23.1666C4.83921 24.4792 5.29182 25.7506 6.11663 26.7716C4.47757 27.6091 3.10146 28.8827 2.13985 30.4522C1.17824 32.0216 0.668451 33.826 0.666626 35.6666C0.666626 36.1087 0.842221 36.5326 1.15478 36.8451C1.46734 37.1577 1.89127 37.3333 2.33329 37.3333H35.6666C36.1087 37.3333 36.5326 37.1577 36.8451 36.8451C37.1577 36.5326 37.3333 36.1087 37.3333 35.6666C37.3315 33.826 36.8217 32.0216 35.8601 30.4522C34.8985 28.8827 33.5223 27.6091 31.8833 26.7716ZM10.6666 20.6666C11.1611 20.6666 11.6444 20.8132 12.0556 21.0879C12.4667 21.3627 12.7871 21.7531 12.9763 22.2099C13.1655 22.6667 13.2151 23.1694 13.1186 23.6544C13.0221 24.1393 12.784 24.5848 12.4344 24.9344C12.0848 25.284 11.6393 25.5221 11.1544 25.6186C10.6694 25.715 10.1667 25.6655 9.70992 25.4763C9.2531 25.2871 8.86265 24.9667 8.58795 24.5555C8.31325 24.1444 8.16663 23.6611 8.16663 23.1666C8.16663 22.5036 8.43002 21.8677 8.89886 21.3989C9.3677 20.93 10.0036 20.6666 10.6666 20.6666ZM4.20996 34C4.57828 32.5674 5.41256 31.298 6.58146 30.3917C7.75036 29.4853 9.18749 28.9934 10.6666 28.9934C12.1458 28.9934 13.5829 29.4853 14.7518 30.3917C15.9207 31.298 16.755 32.5674 17.1233 34H4.20996ZM27.3333 20.6666C27.8277 20.6666 28.3111 20.8132 28.7222 21.0879C29.1333 21.3627 29.4538 21.7531 29.643 22.2099C29.8322 22.6667 29.8817 23.1694 29.7853 23.6544C29.6888 24.1393 29.4507 24.5848 29.1011 24.9344C28.7514 25.284 28.306 25.5221 27.821 25.6186C27.3361 25.715 26.8334 25.6655 26.3766 25.4763C25.9198 25.2871 25.5293 24.9667 25.2546 24.5555C24.9799 24.1444 24.8333 23.6611 24.8333 23.1666C24.8333 22.5036 25.0967 21.8677 25.5655 21.3989C26.0344 20.93 26.6702 20.6666 27.3333 20.6666ZM20.8783 34C21.2478 32.5689 22.0823 31.3012 23.2508 30.3961C24.4192 29.491 25.8553 28.9998 27.3333 28.9998C28.8113 28.9998 30.2474 29.491 31.4158 30.3961C32.5843 31.3012 33.4188 32.5689 33.7883 34H20.8783ZM11 13C10.7347 13.3536 10.6209 13.7981 10.6834 14.2357C10.7459 14.6732 10.9797 15.0681 11.3333 15.3333C11.6869 15.5985 12.1314 15.7124 12.569 15.6499C13.0066 15.5874 13.4014 15.3536 13.6666 15C14.2876 14.172 15.0928 13.5 16.0185 13.0371C16.9442 12.5743 17.965 12.3333 19 12.3333C20.0349 12.3333 21.0557 12.5743 21.9814 13.0371C22.9071 13.5 23.7123 14.172 24.3333 15C24.4646 15.1751 24.6291 15.3226 24.8175 15.4341C25.0058 15.5456 25.2143 15.6189 25.4309 15.6499C25.6476 15.6808 25.8682 15.6688 26.0803 15.6145C26.2923 15.5602 26.4915 15.4646 26.6666 15.3333C26.8417 15.202 26.9892 15.0374 27.1007 14.8491C27.2123 14.6608 27.2856 14.4523 27.3165 14.2357C27.3475 14.019 27.3355 13.7983 27.2811 13.5863C27.2268 13.3743 27.1313 13.1751 27 13C26.0884 11.7831 24.9113 10.7902 23.5583 10.0966C24.3787 9.07691 24.8282 7.80871 24.8333 6.49996C24.8333 4.95286 24.2187 3.46913 23.1247 2.37517C22.0308 1.28121 20.5471 0.666626 19 0.666626C17.4529 0.666626 15.9691 1.28121 14.8752 2.37517C13.7812 3.46913 13.1666 4.95286 13.1666 6.49996C13.1721 7.80814 13.6216 9.07569 14.4416 10.095C13.0882 10.7887 11.9111 11.7823 11 13ZM19 3.99996C19.4944 3.99996 19.9778 4.14658 20.3889 4.42129C20.8 4.69599 21.1204 5.08643 21.3097 5.54325C21.4989 6.00007 21.5484 6.50273 21.4519 6.98768C21.3555 7.47264 21.1174 7.91809 20.7677 8.26773C20.4181 8.61736 19.9726 8.85546 19.4877 8.95192C19.0027 9.04838 18.5001 8.99888 18.0432 8.80966C17.5864 8.62044 17.196 8.30001 16.9213 7.88888C16.6466 7.47776 16.5 6.99441 16.5 6.49996C16.5 5.83692 16.7633 5.20103 17.2322 4.73219C17.701 4.26335 18.3369 3.99996 19 3.99996Z" fill="#AB0519"/>
</svg>
