<svg width="30" height="38" viewBox="0 0 30 38" fill="none" xmlns="http://www.w3.org/2000/svg">
<path d="M15 17.3333C16.6482 17.3333 18.2593 16.8446 19.6298 15.9289C21.0002 15.0132 22.0683 13.7117 22.699 12.189C23.3297 10.6663 23.4948 8.99072 23.1732 7.37421C22.8517 5.7577 22.058 4.27284 20.8926 3.10741C19.7271 1.94197 18.2423 1.1483 16.6258 0.826752C15.0092 0.505209 13.3337 0.670237 11.811 1.30097C10.2883 1.9317 8.98676 2.9998 8.07109 4.37021C7.15541 5.74062 6.66667 7.35179 6.66667 8.99996C6.66931 11.2093 7.54814 13.3274 9.11037 14.8896C10.6726 16.4518 12.7907 17.3306 15 17.3333ZM15 3.99996C15.9889 3.99996 16.9556 4.29321 17.7779 4.84261C18.6001 5.39202 19.241 6.17291 19.6194 7.08655C19.9978 8.00018 20.0969 9.00551 19.9039 9.97541C19.711 10.9453 19.2348 11.8362 18.5355 12.5355C17.8363 13.2348 16.9454 13.711 15.9755 13.9039C15.0055 14.0968 14.0002 13.9978 13.0866 13.6194C12.173 13.2409 11.3921 12.6001 10.8427 11.7778C10.2932 10.9556 10 9.98887 10 8.99996C10 7.67388 10.5268 6.40211 11.4645 5.46443C12.4021 4.52675 13.6739 3.99996 15 3.99996ZM1.66667 37.3333H28.3333C28.7754 37.3333 29.1993 37.1577 29.5118 36.8451C29.8244 36.5326 30 36.1087 30 35.6666C30 31.6884 28.4196 27.8731 25.6066 25.06C22.7936 22.247 18.9782 20.6666 15 20.6666C11.0218 20.6666 7.20644 22.247 4.3934 25.06C1.58035 27.8731 5.92805e-08 31.6884 0 35.6666C0 36.1087 0.175595 36.5326 0.488155 36.8451C0.800716 37.1577 1.22464 37.3333 1.66667 37.3333ZM15 24C17.8046 24.0035 20.5144 25.0156 22.6346 26.8515C24.7548 28.6874 26.1439 31.2247 26.5483 34H3.45167C3.85609 31.2247 5.24523 28.6874 7.36541 26.8515C9.4856 25.0156 12.1954 24.0035 15 24Z" fill="#FDFEFE"/>
</svg>
